<?xml version="1.0" encoding="utf-8"?>
<!-- Generator: Adobe Illustrator 19.2.1, SVG Export Plug-In . SVG Version: 6.00 Build 0)  -->
<svg version="1.1" id="Layer_1" xmlns="http://www.w3.org/2000/svg" xmlns:xlink="http://www.w3.org/1999/xlink" x="0px" y="0px"
	 viewBox="0 0 287.7 798.1" style="enable-background:new 0 0 287.7 798.1;" xml:space="preserve">
<style type="text/css">
	.st0{fill:#133756;}
	.st1{fill:#449E97;}
</style>
<path class="st0" d="M76.7,7.9C58-7.4,52,54.4,62.3,80.2c7.5,18.7,20.2,25.5,36.1,47.1c0,0,19.1,25.8,31.6,72.5
	c13.3,49.7-11.2,86.7-52.7,211.2C40,523,35.6,565.8,60.8,594.2c7.5,8.5,19.4,17.6,22.6,34.4c5.5,28.9-22.1,42.2-27.1,75.1
	c-3.8,24.8,6.5,53.8,27.1,71.2c40.7,34.5,130.7,31.2,176-14c28.2-28.1,35.6-68.8,21.1-101.8c-17.5-39.7-62.3-88.9-104.5-91.6
	c-20.8-1.3-28.3,6.1-48.3-3.8c-21.5-10.7-26.1-23.1-25.4-28c5.1-39.4-3.2-30.1,16.5-71.8c16.9-35.7,29.6-74.3,38.2-94.9
	c19.6-47.5,36-95.2,29.3-153.9c-5-44.1-39.6-55.1-12.7-77.6c15.1-12.7,70-54.8,36.9-132c-9.6-22.5-42.1,32.1-81.4,23.9
	C128.9,29.3,95.5,23.2,76.7,7.9z"/>
<path class="st1" d="M79.2,17.9C63.4,2.6,69.3,48.1,78,73.9c6.3,18.7,17,25.5,30.5,47.1c0,0,16.2,25.8,26.7,72.5
	c11.2,49.7-9.4,86.7-44.5,211.2c-31.5,112-35.3,154.8-14,183.2c6.4,8.5,16.4,17.6,19.1,34.4c4.6,28.9-18.7,42.2-22.9,75.1
	c-3.2,24.8,5.5,53.8,22.9,71.2c34.4,34.5,110.5,31.2,148.9-14c23.9-28.1,30.1-68.8,17.8-101.8c-14.8-39.7-56-67.3-91.6-70
	c-17.6-1.3-31.4,3.5-48.3-6.4c-18.2-10.7-25.2-29.8-26.7-34.4c-8.3-24.6,1.1-46.2,17.8-87.8c14.3-35.7,25.9-64.6,33.1-85.2
	c16.6-47.5,33.7-96.5,28-155.2c-4.3-44.1-31.6-62.7-8.9-85.2c12.8-12.7,47.5-21.6,36.9-105.6c-3.1-24.2-36.7,21.6-70,13.4
	C132.7,36.4,95,33.2,79.2,17.9z"/>
</svg>
