<?xml version="1.0" encoding="utf-8"?>
<!-- Generator: Adobe Illustrator 19.2.1, SVG Export Plug-In . SVG Version: 6.00 Build 0)  -->
<svg version="1.1" id="Layer_1" xmlns="http://www.w3.org/2000/svg" xmlns:xlink="http://www.w3.org/1999/xlink" x="0px" y="0px"
	 viewBox="0 0 38.2 9.2" style="enable-background:new 0 0 38.2 9.2;" xml:space="preserve">
<style type="text/css">
	.st0{fill:#29B34B;}
</style>
<g>
	<path class="st0" d="M4.9,8.7c1.2-3.4,1.6-6.8,2-6.6c1.6,0.6,1.5,3.7,1.4,6.7C8.3,9.1,4.9,8.8,4.9,8.7z"/>
	<path class="st0" d="M24.7,8.6c-1.2-3.4-1.6-6.8-2-6.6c-1.6,0.6-1.5,3.7-1.4,6.7C21.4,9,24.8,8.6,24.7,8.6z"/>
	<path class="st0" d="M23.4,8.6c0.9-2.6,1.3-5.2,1.5-5.1C26.2,4,26.1,6.3,26,8.6C26,8.9,23.4,8.6,23.4,8.6z"/>
	<path class="st0" d="M20,8.6C20.5,7.3,20.7,6,20.8,6c0.6,0.2,0.6,1.4,0.6,2.6C21.3,8.8,20,8.6,20,8.6z"/>
	<path class="st0" d="M18.2,8.6C17.7,7.3,17.5,6,17.4,6c-0.6,0.2-0.6,1.4-0.6,2.6C16.9,8.8,18.2,8.6,18.2,8.6z"/>
	<path class="st0" d="M13.9,8.6C13,6,12.6,3.4,12.4,3.5c-1.3,0.5-1.1,2.8-1.1,5.2C11.3,8.9,13.9,8.6,13.9,8.6z"/>
	<path class="st0" d="M20,8.8c-1.2-3.4-1.6-6.8-2-6.6c-1.6,0.6-1.5,3.7-1.4,6.7C16.6,9.2,20,8.8,20,8.8z"/>
	<path class="st0" d="M15.5,8.6c-1.3-3.7-1.8-7.4-2.1-7.2c-1.8,0.7-1.6,4-1.6,7.3C11.8,9,15.5,8.6,15.5,8.6z"/>
	<path class="st0" d="M14.4,8.6c1.2-3.4,1.6-6.7,1.9-6.5c1.6,0.6,1.4,3.6,1.4,6.6C17.8,9,14.4,8.6,14.4,8.6z"/>
	<path class="st0" d="M10.1,8.6c0.6-1.7,0.8-3.3,1-3.3c0.8,0.3,0.7,1.8,0.7,3.3C11.7,8.8,10.1,8.6,10.1,8.6z"/>
	<path class="st0" d="M6.8,8.7c0.5-1.3,0.6-2.6,0.8-2.6c0.6,0.2,0.6,1.4,0.6,2.6C8.1,8.8,6.8,8.7,6.8,8.7z"/>
	<path class="st0" d="M11.1,8.7C12,6,12.3,3.5,12.6,3.6c1.3,0.5,1.1,2.8,1.1,5.2C13.7,9,11,8.7,11.1,8.7z"/>
	<path class="st0" d="M21.8,8.6c-1.4-4-1.9-7.9-2.3-7.8c-1.9,0.7-1.7,4.3-1.7,7.8C17.8,9.1,21.8,8.7,21.8,8.6z"/>
	<path class="st0" d="M15.3,8.5c-1.2-3.4-1.6-6.8-2-6.6c-1.6,0.6-1.5,3.7-1.4,6.7C11.9,8.9,15.3,8.6,15.3,8.5z"/>
	<path class="st0" d="M0,8.6c0.9-2.6,1.3-5.2,1.5-5.1c1.3,0.5,1.1,2.8,1.1,5.2C2.6,8.9,0,8.6,0,8.6z"/>
	<path class="st0" d="M10.6,8.6C11,7.2,11.2,6,11.3,6c0.6,0.2,0.6,1.4,0.6,2.6C11.9,8.7,10.6,8.6,10.6,8.6z"/>
	<path class="st0" d="M8.7,8.6C8.3,7.2,8.1,6,8,6C7.4,6.3,7.4,7.4,7.4,8.6C7.4,8.7,8.7,8.6,8.7,8.6z"/>
	<path class="st0" d="M10.6,8.4c1.2-3.4,1.6-6.7,1.9-6.5C14.2,2.5,14,5.5,14,8.5C14,8.8,10.6,8.5,10.6,8.4z"/>
	<path class="st0" d="M10.6,8.8C9.4,5.3,8.9,2,8.6,2.1C7,2.8,7.2,5.8,7.2,8.8C7.2,9.2,10.6,8.8,10.6,8.8z"/>
	<path class="st0" d="M28.2,8.5c-1.5-4.4-2.1-8.6-2.5-8.5c-2.1,0.8-1.9,4.7-1.8,8.6C23.8,9,28.2,8.5,28.2,8.5z"/>
	<path class="st0" d="M26.5,8.5c1.2-3.4,1.6-6.7,1.9-6.5c1.6,0.6,1.4,3.6,1.4,6.6C29.8,8.9,26.5,8.6,26.5,8.5z"/>
	<path class="st0" d="M9.1,8.5c0.6-1.7,0.8-3.3,1-3.3c0.8,0.3,0.7,1.8,0.7,3.3C10.8,8.7,9.1,8.6,9.1,8.5z"/>
	<path class="st0" d="M19.8,8.5c-0.6-1.7-0.8-3.3-1-3.3c-0.8,0.3-0.7,1.8-0.7,3.3C18.1,8.7,19.8,8.6,19.8,8.5z"/>
	<path class="st0" d="M7.3,8.5C6.2,5.2,5.7,1.9,5.4,2C3.8,2.6,3.9,5.6,4,8.6C4,8.9,7.3,8.6,7.3,8.5z"/>
	<path class="st0" d="M14.7,9c0.9-2.7,1.3-5.4,1.6-5.3c1.3,0.5,1.2,2.9,1.1,5.3C17.4,9.3,14.7,9,14.7,9z"/>
	<path class="st0" d="M30.5,8.9c-0.9-2.7-1.3-5.4-1.6-5.3c-1.3,0.5-1.2,2.9-1.1,5.3C27.8,9.2,30.5,8.9,30.5,8.9z"/>
	<path class="st0" d="M29.4,8.9c0.7-2.1,1-4.1,1.2-4.1c1,0.4,0.9,2.2,0.9,4.1C31.5,9.1,29.4,8.9,29.4,8.9z"/>
	<path class="st0" d="M26.7,8.9c0.4-1.1,0.5-2.1,0.6-2c0.5,0.2,0.4,1.1,0.4,2C27.8,9,26.7,8.9,26.7,8.9z"/>
	<path class="st0" d="M25.3,8.9c-0.4-1.1-0.5-2.1-0.6-2c-0.5,0.2-0.4,1.1-0.4,2C24.2,9,25.3,8.9,25.3,8.9z"/>
	<path class="st0" d="M21.9,8.9c-0.7-2.1-1-4.1-1.2-4.1c-1,0.4-0.9,2.2-0.9,4.1C19.8,9.1,21.9,8.9,21.9,8.9z"/>
	<path class="st0" d="M26.7,9c-0.9-2.7-1.3-5.4-1.6-5.3C23.9,4.3,24,6.7,24,9.1C24,9.4,26.7,9.1,26.7,9z"/>
	<path class="st0" d="M23.6,8.8c-1.2-3.5-1.7-6.9-2-6.7c-1.7,0.6-1.5,3.7-1.5,6.8C20.2,9.2,23.6,8.9,23.6,8.8z"/>
	<path class="st0" d="M31.3,8.9c0.9-2.7,1.3-5.3,1.5-5.2c1.3,0.5,1.1,2.9,1.1,5.2C33.9,9.2,31.3,8.9,31.3,8.9z"/>
	<path class="st0" d="M18.8,8.9c0.5-1.3,0.6-2.6,0.8-2.6c0.6,0.2,0.6,1.4,0.6,2.6C20.1,9,18.8,8.9,18.8,8.9z"/>
	<path class="st0" d="M16.2,9c0.4-1.1,0.5-2.1,0.6-2c0.5,0.2,0.4,1.1,0.4,2C17.3,9.1,16.2,9,16.2,9z"/>
	<path class="st0" d="M19.6,9c0.7-2.1,1-4.1,1.2-4.1c1,0.4,0.9,2.2,0.9,4.1C21.7,9.2,19.6,9,19.6,9z"/>
	<path class="st0" d="M28.4,8.9c-1.2-3.5-1.7-6.9-2-6.7c-1.7,0.6-1.5,3.7-1.5,6.8C25,9.3,28.4,8.9,28.4,8.9z"/>
	<path class="st0" d="M37,8.8c-0.9-2.7-1.3-5.4-1.6-5.3c-1.3,0.5-1.2,2.9-1.1,5.3C34.3,9.1,37,8.9,37,8.8z"/>
	<path class="st0" d="M0.9,8.9c0.7-2.1,1-4.1,1.2-4.1C3.1,5.2,3,7.1,3,8.9C3,9.1,0.9,8.9,0.9,8.9z"/>
	<path class="st0" d="M19.2,8.9c0.4-1.1,0.5-2.1,0.6-2c0.5,0.2,0.4,1.1,0.4,2C20.3,9,19.2,8.9,19.2,8.9z"/>
	<path class="st0" d="M17.8,8.9c-0.4-1.1-0.5-2.1-0.6-2c-0.5,0.2-0.4,1.1-0.4,2C16.7,9,17.8,8.9,17.8,8.9z"/>
	<path class="st0" d="M19.3,8.8c0.9-2.7,1.3-5.3,1.5-5.2c1.3,0.5,1.1,2.9,1.1,5.2C21.9,9.1,19.3,8.8,19.3,8.8z"/>
	<path class="st0" d="M38.2,9c-0.9-2.7-1.3-5.4-1.6-5.3c-1.3,0.5-1.2,2.9-1.1,5.3C35.5,9.3,38.2,9,38.2,9z"/>
	<path class="st0" d="M33.2,8.8c-1.2-3.5-1.7-6.9-2-6.7c-1.7,0.6-1.5,3.7-1.5,6.8C29.8,9.2,33.2,8.8,33.2,8.8z"/>
	<path class="st0" d="M31.9,8.8c0.9-2.7,1.3-5.3,1.5-5.2c1.3,0.5,1.1,2.9,1.1,5.2C34.5,9.2,31.8,8.9,31.9,8.8z"/>
	<path class="st0" d="M28.4,8.8c0.5-1.3,0.6-2.6,0.8-2.6c0.6,0.2,0.6,1.4,0.6,2.6C29.7,9,28.4,8.9,28.4,8.8z"/>
	<path class="st0" d="M3.3,8.8C2.9,7.5,2.7,6.2,2.6,6.2C1.9,6.5,2,7.7,2,8.9C2,9,3.3,8.9,3.3,8.8z"/>
	<path class="st0" d="M5.2,8.8C4.3,6.2,3.9,3.6,3.7,3.7C2.4,4.1,2.5,6.5,2.5,8.9C2.5,9.2,5.2,8.9,5.2,8.8z"/>
</g>
<rect x="0" y="8.5" class="st0" width="38.2" height="0.7"/>
</svg>
