<?xml version="1.0" encoding="utf-8"?>
<!-- Generator: Adobe Illustrator 19.2.1, SVG Export Plug-In . SVG Version: 6.00 Build 0)  -->
<svg version="1.1" id="Layer_1" xmlns="http://www.w3.org/2000/svg" xmlns:xlink="http://www.w3.org/1999/xlink" x="0px" y="0px"
	 viewBox="0 0 1000.5 152.7" style="enable-background:new 0 0 1000.5 152.7;" xml:space="preserve">
<style type="text/css">
	.st0{fill:#C02126;}
	.st1{fill:#BF5627;}
	.st2{fill:#BBA130;}
</style>
<path class="st0" d="M1000.5,51.5c-27.6,18.3-69.1,39.6-120.7,42c-65.7,3-88.3-27.4-173-53c-10-3-121.6-35.6-250.4-16
	c-80.5,12.2-91.1,33.2-162.9,50c-64.4,15.1-161.5,23-293.6-19V37.2c132.1,42,229.2,34.1,293.6,19c71.8-16.8,82.4-37.8,162.9-50
	c128.8-19.6,240.4,13,250.4,16c84.7,25.6,107.3,56,173,53c51.6-2.4,93.1-23.7,120.7-42V51.5z"/>
<path class="st1" d="M1000.5,71.5c-27.6,18.3-69.1,39.6-120.7,42c-65.7,3-88.3-27.4-173-53c-10-3-121.6-35.6-250.4-16
	c-80.5,12.2-91.1,33.2-162.9,50c-64.4,15.1-161.5,23-293.6-19V57.2c132.1,42,229.2,34.1,293.6,19c71.8-16.8,82.4-37.8,162.9-50
	c128.8-19.6,240.4,13,250.4,16c84.7,25.6,107.3,56,173,53c51.6-2.4,93.1-23.7,120.7-42V71.5z"/>
<path class="st2" d="M1000.5,91.5c-27.6,18.3-69.1,39.6-120.7,42c-65.7,3-88.3-27.4-173-53c-10-3-121.6-35.6-250.4-16
	c-80.5,12.2-91.1,33.2-162.9,50c-64.4,15.1-161.5,23-293.6-19V77.2c132.1,42,229.2,34.1,293.6,19c71.8-16.8,82.4-37.8,162.9-50
	c128.8-19.6,240.4,13,250.4,16c84.7,25.6,107.3,56,173,53c51.6-2.4,93.1-23.7,120.7-42V91.5z"/>
<path class="st0" d="M1000.5,110.5c-27.6,18.3-69.1,39.6-120.7,42c-65.7,3-88.3-27.4-173-53c-10-3-121.6-35.6-250.4-16
	c-80.5,12.2-91.1,33.2-162.9,50c-64.4,15.1-161.5,23-293.6-19V96.2c132.1,42,229.2,34.1,293.6,19c71.8-16.8,82.4-37.8,162.9-50
	c128.8-19.6,240.4,13,250.4,16c84.7,25.6,107.3,56,173,53c51.6-2.4,93.1-23.7,120.7-42V110.5z"/>
</svg>
